<mxfile host="app.diagrams.net" modified="2023-04-20T12:22:20.082Z" agent="Mozilla/5.0 (Windows NT 10.0; Win64; x64) AppleWebKit/537.36 (KHTML, like Gecko) Chrome/111.0.0.0 Safari/537.36 OPR/97.0.0.0" etag="SMSbfFAPGprZxkTmxCGS" version="21.1.5" type="device">
  <diagram name="Page-1" id="ULeJaHsNCBYTRYlEiR_4">
    <mxGraphModel dx="620" dy="352" grid="1" gridSize="10" guides="1" tooltips="1" connect="1" arrows="1" fold="1" page="1" pageScale="1" pageWidth="827" pageHeight="1169" math="0" shadow="0">
      <root>
        <mxCell id="0" />
        <mxCell id="1" parent="0" />
        <mxCell id="Vk-TrDPL9tyzzPuqs7Jr-135" value="Prodotti" style="shape=table;startSize=30;container=1;collapsible=1;childLayout=tableLayout;fixedRows=1;rowLines=0;fontStyle=1;align=center;resizeLast=1;" parent="1" vertex="1">
          <mxGeometry x="243.75" y="510" width="250" height="190" as="geometry">
            <mxRectangle x="243.75" y="510" width="90" height="30" as="alternateBounds" />
          </mxGeometry>
        </mxCell>
        <mxCell id="Vk-TrDPL9tyzzPuqs7Jr-136" value="" style="shape=partialRectangle;collapsible=0;dropTarget=0;pointerEvents=0;fillColor=none;points=[[0,0.5],[1,0.5]];portConstraint=eastwest;top=0;left=0;right=0;bottom=1;" parent="Vk-TrDPL9tyzzPuqs7Jr-135" vertex="1">
          <mxGeometry y="30" width="250" height="30" as="geometry" />
        </mxCell>
        <mxCell id="Vk-TrDPL9tyzzPuqs7Jr-137" value="PK" style="shape=partialRectangle;overflow=hidden;connectable=0;fillColor=none;top=0;left=0;bottom=0;right=0;fontStyle=1;" parent="Vk-TrDPL9tyzzPuqs7Jr-136" vertex="1">
          <mxGeometry width="30" height="30" as="geometry">
            <mxRectangle width="30" height="30" as="alternateBounds" />
          </mxGeometry>
        </mxCell>
        <mxCell id="Vk-TrDPL9tyzzPuqs7Jr-138" value="id INT NOT NULL" style="shape=partialRectangle;overflow=hidden;connectable=0;fillColor=none;top=0;left=0;bottom=0;right=0;align=left;spacingLeft=6;fontStyle=5;" parent="Vk-TrDPL9tyzzPuqs7Jr-136" vertex="1">
          <mxGeometry x="30" width="220" height="30" as="geometry">
            <mxRectangle width="220" height="30" as="alternateBounds" />
          </mxGeometry>
        </mxCell>
        <mxCell id="Vk-TrDPL9tyzzPuqs7Jr-139" value="" style="shape=partialRectangle;collapsible=0;dropTarget=0;pointerEvents=0;fillColor=none;points=[[0,0.5],[1,0.5]];portConstraint=eastwest;top=0;left=0;right=0;bottom=0;" parent="Vk-TrDPL9tyzzPuqs7Jr-135" vertex="1">
          <mxGeometry y="60" width="250" height="30" as="geometry" />
        </mxCell>
        <mxCell id="Vk-TrDPL9tyzzPuqs7Jr-140" value="" style="shape=partialRectangle;overflow=hidden;connectable=0;fillColor=none;top=0;left=0;bottom=0;right=0;" parent="Vk-TrDPL9tyzzPuqs7Jr-139" vertex="1">
          <mxGeometry width="30" height="30" as="geometry">
            <mxRectangle width="30" height="30" as="alternateBounds" />
          </mxGeometry>
        </mxCell>
        <mxCell id="Vk-TrDPL9tyzzPuqs7Jr-141" value="nome text" style="shape=partialRectangle;overflow=hidden;connectable=0;fillColor=none;top=0;left=0;bottom=0;right=0;align=left;spacingLeft=6;" parent="Vk-TrDPL9tyzzPuqs7Jr-139" vertex="1">
          <mxGeometry x="30" width="220" height="30" as="geometry">
            <mxRectangle width="220" height="30" as="alternateBounds" />
          </mxGeometry>
        </mxCell>
        <mxCell id="Vk-TrDPL9tyzzPuqs7Jr-142" value="" style="shape=partialRectangle;overflow=hidden;connectable=0;fillColor=none;top=0;left=0;bottom=0;right=0;" parent="1" vertex="1">
          <mxGeometry x="243.75" y="619.9200000000001" width="30" height="30" as="geometry">
            <mxRectangle width="30" height="30" as="alternateBounds" />
          </mxGeometry>
        </mxCell>
        <mxCell id="Vk-TrDPL9tyzzPuqs7Jr-143" value="prezzoÂ  float" style="shape=partialRectangle;overflow=hidden;connectable=0;fillColor=none;top=0;left=0;bottom=0;right=0;align=left;spacingLeft=6;" parent="1" vertex="1">
          <mxGeometry x="273.75" y="600" width="220" height="30" as="geometry">
            <mxRectangle width="220" height="30" as="alternateBounds" />
          </mxGeometry>
        </mxCell>
        <mxCell id="Vk-TrDPL9tyzzPuqs7Jr-144" value="nomeimg Text" style="shape=partialRectangle;overflow=hidden;connectable=0;fillColor=none;top=0;left=0;bottom=0;right=0;align=left;spacingLeft=6;" parent="1" vertex="1">
          <mxGeometry x="273.75" y="630" width="220" height="30" as="geometry">
            <mxRectangle width="220" height="30" as="alternateBounds" />
          </mxGeometry>
        </mxCell>
        <mxCell id="Vk-TrDPL9tyzzPuqs7Jr-145" value="promo Bool" style="shape=partialRectangle;overflow=hidden;connectable=0;fillColor=none;top=0;left=0;bottom=0;right=0;align=left;spacingLeft=6;" parent="1" vertex="1">
          <mxGeometry x="273.75" y="660" width="220" height="30" as="geometry">
            <mxRectangle width="220" height="30" as="alternateBounds" />
          </mxGeometry>
        </mxCell>
        <mxCell id="Vk-TrDPL9tyzzPuqs7Jr-146" value="Acquisti&lt;br&gt;" style="shape=rhombus;perimeter=rhombusPerimeter;whiteSpace=wrap;html=1;align=center;" parent="1" vertex="1">
          <mxGeometry x="258.75" y="319.9999999999999" width="220" height="110" as="geometry" />
        </mxCell>
        <mxCell id="Vk-TrDPL9tyzzPuqs7Jr-147" value="" style="endArrow=none;html=1;rounded=0;exitX=0.5;exitY=0;exitDx=0;exitDy=0;entryX=0.5;entryY=1;entryDx=0;entryDy=0;" parent="1" source="Vk-TrDPL9tyzzPuqs7Jr-135" target="Vk-TrDPL9tyzzPuqs7Jr-146" edge="1">
          <mxGeometry relative="1" as="geometry">
            <mxPoint x="556.25" y="-20.079999999999927" as="sourcePoint" />
            <mxPoint x="421.25" y="77.92000000000007" as="targetPoint" />
          </mxGeometry>
        </mxCell>
        <mxCell id="Vk-TrDPL9tyzzPuqs7Jr-148" value="0" style="resizable=0;html=1;whiteSpace=wrap;align=left;verticalAlign=bottom;" parent="Vk-TrDPL9tyzzPuqs7Jr-147" connectable="0" vertex="1">
          <mxGeometry x="-1" relative="1" as="geometry" />
        </mxCell>
        <mxCell id="Vk-TrDPL9tyzzPuqs7Jr-149" value="N" style="resizable=0;html=1;whiteSpace=wrap;align=right;verticalAlign=bottom;" parent="Vk-TrDPL9tyzzPuqs7Jr-147" connectable="0" vertex="1">
          <mxGeometry x="1" relative="1" as="geometry">
            <mxPoint x="15" y="30" as="offset" />
          </mxGeometry>
        </mxCell>
        <mxCell id="Vk-TrDPL9tyzzPuqs7Jr-150" value="" style="line;strokeWidth=2;html=1;" parent="1" vertex="1">
          <mxGeometry x="414" y="339.9999999999999" width="40" height="10" as="geometry" />
        </mxCell>
        <mxCell id="Vk-TrDPL9tyzzPuqs7Jr-151" value="" style="ellipse;whiteSpace=wrap;html=1;aspect=fixed;" parent="1" vertex="1">
          <mxGeometry x="454" y="339.9999999999999" width="10" height="10" as="geometry" />
        </mxCell>
        <mxCell id="Vk-TrDPL9tyzzPuqs7Jr-152" value="" style="rounded=0;whiteSpace=wrap;html=1;dashed=1;" parent="1" vertex="1">
          <mxGeometry x="464" y="327.4999999999999" width="60" height="35" as="geometry" />
        </mxCell>
        <mxCell id="Vk-TrDPL9tyzzPuqs7Jr-153" value="data Date" style="text;html=1;strokeColor=none;fillColor=none;align=center;verticalAlign=middle;whiteSpace=wrap;rounded=0;" parent="1" vertex="1">
          <mxGeometry x="464" y="329.9999999999999" width="60" height="30" as="geometry" />
        </mxCell>
        <mxCell id="Vk-TrDPL9tyzzPuqs7Jr-158" value="utenti" style="shape=table;startSize=30;container=1;collapsible=1;childLayout=tableLayout;fixedRows=1;rowLines=0;fontStyle=1;align=center;resizeLast=1;" parent="1" vertex="1">
          <mxGeometry x="243.75" y="20" width="250" height="230" as="geometry" />
        </mxCell>
        <mxCell id="Vk-TrDPL9tyzzPuqs7Jr-159" value="" style="shape=partialRectangle;collapsible=0;dropTarget=0;pointerEvents=0;fillColor=none;points=[[0,0.5],[1,0.5]];portConstraint=eastwest;top=0;left=0;right=0;bottom=1;" parent="Vk-TrDPL9tyzzPuqs7Jr-158" vertex="1">
          <mxGeometry y="30" width="250" height="30" as="geometry" />
        </mxCell>
        <mxCell id="Vk-TrDPL9tyzzPuqs7Jr-160" value="PK" style="shape=partialRectangle;overflow=hidden;connectable=0;fillColor=none;top=0;left=0;bottom=0;right=0;fontStyle=1;" parent="Vk-TrDPL9tyzzPuqs7Jr-159" vertex="1">
          <mxGeometry width="30" height="30" as="geometry">
            <mxRectangle width="30" height="30" as="alternateBounds" />
          </mxGeometry>
        </mxCell>
        <mxCell id="Vk-TrDPL9tyzzPuqs7Jr-161" value="username_varchar(50) NOT NULL" style="shape=partialRectangle;overflow=hidden;connectable=0;fillColor=none;top=0;left=0;bottom=0;right=0;align=left;spacingLeft=6;fontStyle=5;" parent="Vk-TrDPL9tyzzPuqs7Jr-159" vertex="1">
          <mxGeometry x="30" width="220" height="30" as="geometry">
            <mxRectangle width="220" height="30" as="alternateBounds" />
          </mxGeometry>
        </mxCell>
        <mxCell id="Vk-TrDPL9tyzzPuqs7Jr-162" value="" style="shape=partialRectangle;collapsible=0;dropTarget=0;pointerEvents=0;fillColor=none;points=[[0,0.5],[1,0.5]];portConstraint=eastwest;top=0;left=0;right=0;bottom=0;" parent="Vk-TrDPL9tyzzPuqs7Jr-158" vertex="1">
          <mxGeometry y="60" width="250" height="30" as="geometry" />
        </mxCell>
        <mxCell id="Vk-TrDPL9tyzzPuqs7Jr-163" value="" style="shape=partialRectangle;overflow=hidden;connectable=0;fillColor=none;top=0;left=0;bottom=0;right=0;" parent="Vk-TrDPL9tyzzPuqs7Jr-162" vertex="1">
          <mxGeometry width="30" height="30" as="geometry">
            <mxRectangle width="30" height="30" as="alternateBounds" />
          </mxGeometry>
        </mxCell>
        <mxCell id="Vk-TrDPL9tyzzPuqs7Jr-164" value="nome text" style="shape=partialRectangle;overflow=hidden;connectable=0;fillColor=none;top=0;left=0;bottom=0;right=0;align=left;spacingLeft=6;" parent="Vk-TrDPL9tyzzPuqs7Jr-162" vertex="1">
          <mxGeometry x="30" width="220" height="30" as="geometry">
            <mxRectangle width="220" height="30" as="alternateBounds" />
          </mxGeometry>
        </mxCell>
        <mxCell id="Vk-TrDPL9tyzzPuqs7Jr-165" value="" style="shape=partialRectangle;overflow=hidden;connectable=0;fillColor=none;top=0;left=0;bottom=0;right=0;" parent="1" vertex="1">
          <mxGeometry x="248.75" y="110" width="30" height="30" as="geometry">
            <mxRectangle width="30" height="30" as="alternateBounds" />
          </mxGeometry>
        </mxCell>
        <mxCell id="Vk-TrDPL9tyzzPuqs7Jr-166" value="cognomeÂ  Text" style="shape=partialRectangle;overflow=hidden;connectable=0;fillColor=none;top=0;left=0;bottom=0;right=0;align=left;spacingLeft=6;" parent="1" vertex="1">
          <mxGeometry x="278.75" y="110" width="220" height="30" as="geometry">
            <mxRectangle width="220" height="30" as="alternateBounds" />
          </mxGeometry>
        </mxCell>
        <mxCell id="Vk-TrDPL9tyzzPuqs7Jr-167" value="indirizzo Text" style="shape=partialRectangle;overflow=hidden;connectable=0;fillColor=none;top=0;left=0;bottom=0;right=0;align=left;spacingLeft=6;" parent="1" vertex="1">
          <mxGeometry x="278.75" y="140" width="220" height="30" as="geometry">
            <mxRectangle width="220" height="30" as="alternateBounds" />
          </mxGeometry>
        </mxCell>
        <mxCell id="Vk-TrDPL9tyzzPuqs7Jr-168" value="password TextÂ " style="shape=partialRectangle;overflow=hidden;connectable=0;fillColor=none;top=0;left=0;bottom=0;right=0;align=left;spacingLeft=6;" parent="1" vertex="1">
          <mxGeometry x="278.75" y="170" width="220" height="30" as="geometry">
            <mxRectangle width="220" height="30" as="alternateBounds" />
          </mxGeometry>
        </mxCell>
        <mxCell id="Vk-TrDPL9tyzzPuqs7Jr-169" value="datanascita Date" style="shape=partialRectangle;overflow=hidden;connectable=0;fillColor=none;top=0;left=0;bottom=0;right=0;align=left;spacingLeft=6;" parent="1" vertex="1">
          <mxGeometry x="278.75" y="210" width="220" height="30" as="geometry">
            <mxRectangle width="220" height="30" as="alternateBounds" />
          </mxGeometry>
        </mxCell>
        <mxCell id="Vk-TrDPL9tyzzPuqs7Jr-170" value="" style="endArrow=none;html=1;rounded=0;exitX=0.5;exitY=0;exitDx=0;exitDy=0;entryX=0.5;entryY=1;entryDx=0;entryDy=0;" parent="1" source="Vk-TrDPL9tyzzPuqs7Jr-146" target="Vk-TrDPL9tyzzPuqs7Jr-158" edge="1">
          <mxGeometry relative="1" as="geometry">
            <mxPoint x="378.75" y="540" as="sourcePoint" />
            <mxPoint x="378.75" y="470" as="targetPoint" />
          </mxGeometry>
        </mxCell>
        <mxCell id="Vk-TrDPL9tyzzPuqs7Jr-171" value="N" style="resizable=0;html=1;whiteSpace=wrap;align=left;verticalAlign=bottom;" parent="Vk-TrDPL9tyzzPuqs7Jr-170" connectable="0" vertex="1">
          <mxGeometry x="-1" relative="1" as="geometry" />
        </mxCell>
        <mxCell id="Vk-TrDPL9tyzzPuqs7Jr-173" value="Prodotti" style="shape=table;startSize=30;container=1;collapsible=1;childLayout=tableLayout;fixedRows=1;rowLines=0;fontStyle=1;align=center;resizeLast=1;" parent="1" vertex="1">
          <mxGeometry x="365" y="2069.92" width="250" height="190" as="geometry" />
        </mxCell>
        <mxCell id="Vk-TrDPL9tyzzPuqs7Jr-174" value="" style="shape=partialRectangle;collapsible=0;dropTarget=0;pointerEvents=0;fillColor=none;points=[[0,0.5],[1,0.5]];portConstraint=eastwest;top=0;left=0;right=0;bottom=1;" parent="Vk-TrDPL9tyzzPuqs7Jr-173" vertex="1">
          <mxGeometry y="30" width="250" height="30" as="geometry" />
        </mxCell>
        <mxCell id="Vk-TrDPL9tyzzPuqs7Jr-175" value="PK" style="shape=partialRectangle;overflow=hidden;connectable=0;fillColor=none;top=0;left=0;bottom=0;right=0;fontStyle=1;" parent="Vk-TrDPL9tyzzPuqs7Jr-174" vertex="1">
          <mxGeometry width="30" height="30" as="geometry">
            <mxRectangle width="30" height="30" as="alternateBounds" />
          </mxGeometry>
        </mxCell>
        <mxCell id="Vk-TrDPL9tyzzPuqs7Jr-176" value="id INT NOT NULL" style="shape=partialRectangle;overflow=hidden;connectable=0;fillColor=none;top=0;left=0;bottom=0;right=0;align=left;spacingLeft=6;fontStyle=5;" parent="Vk-TrDPL9tyzzPuqs7Jr-174" vertex="1">
          <mxGeometry x="30" width="220" height="30" as="geometry">
            <mxRectangle width="220" height="30" as="alternateBounds" />
          </mxGeometry>
        </mxCell>
        <mxCell id="Vk-TrDPL9tyzzPuqs7Jr-177" value="" style="shape=partialRectangle;collapsible=0;dropTarget=0;pointerEvents=0;fillColor=none;points=[[0,0.5],[1,0.5]];portConstraint=eastwest;top=0;left=0;right=0;bottom=0;" parent="Vk-TrDPL9tyzzPuqs7Jr-173" vertex="1">
          <mxGeometry y="60" width="250" height="30" as="geometry" />
        </mxCell>
        <mxCell id="Vk-TrDPL9tyzzPuqs7Jr-178" value="" style="shape=partialRectangle;overflow=hidden;connectable=0;fillColor=none;top=0;left=0;bottom=0;right=0;" parent="Vk-TrDPL9tyzzPuqs7Jr-177" vertex="1">
          <mxGeometry width="30" height="30" as="geometry">
            <mxRectangle width="30" height="30" as="alternateBounds" />
          </mxGeometry>
        </mxCell>
        <mxCell id="Vk-TrDPL9tyzzPuqs7Jr-179" value="nome text" style="shape=partialRectangle;overflow=hidden;connectable=0;fillColor=none;top=0;left=0;bottom=0;right=0;align=left;spacingLeft=6;" parent="Vk-TrDPL9tyzzPuqs7Jr-177" vertex="1">
          <mxGeometry x="30" width="220" height="30" as="geometry">
            <mxRectangle width="220" height="30" as="alternateBounds" />
          </mxGeometry>
        </mxCell>
        <mxCell id="Vk-TrDPL9tyzzPuqs7Jr-180" value="" style="shape=partialRectangle;overflow=hidden;connectable=0;fillColor=none;top=0;left=0;bottom=0;right=0;" parent="1" vertex="1">
          <mxGeometry x="365" y="2159.92" width="30" height="30" as="geometry">
            <mxRectangle width="30" height="30" as="alternateBounds" />
          </mxGeometry>
        </mxCell>
        <mxCell id="Vk-TrDPL9tyzzPuqs7Jr-181" value="prezzoÂ  float" style="shape=partialRectangle;overflow=hidden;connectable=0;fillColor=none;top=0;left=0;bottom=0;right=0;align=left;spacingLeft=6;" parent="1" vertex="1">
          <mxGeometry x="395" y="2159.92" width="220" height="30" as="geometry">
            <mxRectangle width="220" height="30" as="alternateBounds" />
          </mxGeometry>
        </mxCell>
        <mxCell id="Vk-TrDPL9tyzzPuqs7Jr-182" value="nomeimg Text" style="shape=partialRectangle;overflow=hidden;connectable=0;fillColor=none;top=0;left=0;bottom=0;right=0;align=left;spacingLeft=6;" parent="1" vertex="1">
          <mxGeometry x="395" y="2189.92" width="220" height="30" as="geometry">
            <mxRectangle width="220" height="30" as="alternateBounds" />
          </mxGeometry>
        </mxCell>
        <mxCell id="Vk-TrDPL9tyzzPuqs7Jr-183" value="promo TinyIntÂ " style="shape=partialRectangle;overflow=hidden;connectable=0;fillColor=none;top=0;left=0;bottom=0;right=0;align=left;spacingLeft=6;" parent="1" vertex="1">
          <mxGeometry x="395" y="2219.92" width="220" height="30" as="geometry">
            <mxRectangle width="220" height="30" as="alternateBounds" />
          </mxGeometry>
        </mxCell>
        <mxCell id="Vk-TrDPL9tyzzPuqs7Jr-184" value="Acquisti&lt;br&gt;" style="shape=rhombus;perimeter=rhombusPerimeter;whiteSpace=wrap;html=1;align=center;" parent="1" vertex="1">
          <mxGeometry x="380" y="1890" width="220" height="110" as="geometry" />
        </mxCell>
        <mxCell id="Vk-TrDPL9tyzzPuqs7Jr-185" value="" style="endArrow=none;html=1;rounded=0;exitX=0.5;exitY=0;exitDx=0;exitDy=0;entryX=0.5;entryY=1;entryDx=0;entryDy=0;" parent="1" source="Vk-TrDPL9tyzzPuqs7Jr-173" target="Vk-TrDPL9tyzzPuqs7Jr-184" edge="1">
          <mxGeometry relative="1" as="geometry">
            <mxPoint x="677.5" y="1519.92" as="sourcePoint" />
            <mxPoint x="542.5" y="1617.92" as="targetPoint" />
          </mxGeometry>
        </mxCell>
        <mxCell id="Vk-TrDPL9tyzzPuqs7Jr-186" value="N" style="resizable=0;html=1;whiteSpace=wrap;align=left;verticalAlign=bottom;" parent="Vk-TrDPL9tyzzPuqs7Jr-185" connectable="0" vertex="1">
          <mxGeometry x="-1" relative="1" as="geometry" />
        </mxCell>
        <mxCell id="Vk-TrDPL9tyzzPuqs7Jr-187" value="N" style="resizable=0;html=1;whiteSpace=wrap;align=right;verticalAlign=bottom;" parent="Vk-TrDPL9tyzzPuqs7Jr-185" connectable="0" vertex="1">
          <mxGeometry x="1" relative="1" as="geometry">
            <mxPoint x="15" y="30" as="offset" />
          </mxGeometry>
        </mxCell>
        <mxCell id="Vk-TrDPL9tyzzPuqs7Jr-188" value="" style="line;strokeWidth=2;html=1;" parent="1" vertex="1">
          <mxGeometry x="597.5" y="1940" width="40" height="10" as="geometry" />
        </mxCell>
        <mxCell id="Vk-TrDPL9tyzzPuqs7Jr-189" value="" style="ellipse;whiteSpace=wrap;html=1;aspect=fixed;" parent="1" vertex="1">
          <mxGeometry x="637.5" y="1940" width="10" height="10" as="geometry" />
        </mxCell>
        <mxCell id="Vk-TrDPL9tyzzPuqs7Jr-190" value="" style="rounded=0;whiteSpace=wrap;html=1;dashed=1;" parent="1" vertex="1">
          <mxGeometry x="652.5" y="1927.5" width="60" height="35" as="geometry" />
        </mxCell>
        <mxCell id="Vk-TrDPL9tyzzPuqs7Jr-191" value="data Date" style="text;html=1;strokeColor=none;fillColor=none;align=center;verticalAlign=middle;whiteSpace=wrap;rounded=0;" parent="1" vertex="1">
          <mxGeometry x="652.5" y="1930" width="60" height="30" as="geometry" />
        </mxCell>
        <mxCell id="Vk-TrDPL9tyzzPuqs7Jr-192" value="utenti" style="shape=table;startSize=30;container=1;collapsible=1;childLayout=tableLayout;fixedRows=1;rowLines=0;fontStyle=1;align=center;resizeLast=1;" parent="1" vertex="1">
          <mxGeometry x="365" y="1570" width="250" height="230" as="geometry" />
        </mxCell>
        <mxCell id="Vk-TrDPL9tyzzPuqs7Jr-193" value="" style="shape=partialRectangle;collapsible=0;dropTarget=0;pointerEvents=0;fillColor=none;points=[[0,0.5],[1,0.5]];portConstraint=eastwest;top=0;left=0;right=0;bottom=1;" parent="Vk-TrDPL9tyzzPuqs7Jr-192" vertex="1">
          <mxGeometry y="30" width="250" height="30" as="geometry" />
        </mxCell>
        <mxCell id="Vk-TrDPL9tyzzPuqs7Jr-194" value="PK" style="shape=partialRectangle;overflow=hidden;connectable=0;fillColor=none;top=0;left=0;bottom=0;right=0;fontStyle=1;" parent="Vk-TrDPL9tyzzPuqs7Jr-193" vertex="1">
          <mxGeometry width="30" height="30" as="geometry">
            <mxRectangle width="30" height="30" as="alternateBounds" />
          </mxGeometry>
        </mxCell>
        <mxCell id="Vk-TrDPL9tyzzPuqs7Jr-195" value="username_varchar(50) NOT NULL" style="shape=partialRectangle;overflow=hidden;connectable=0;fillColor=none;top=0;left=0;bottom=0;right=0;align=left;spacingLeft=6;fontStyle=5;" parent="Vk-TrDPL9tyzzPuqs7Jr-193" vertex="1">
          <mxGeometry x="30" width="220" height="30" as="geometry">
            <mxRectangle width="220" height="30" as="alternateBounds" />
          </mxGeometry>
        </mxCell>
        <mxCell id="Vk-TrDPL9tyzzPuqs7Jr-196" value="" style="shape=partialRectangle;collapsible=0;dropTarget=0;pointerEvents=0;fillColor=none;points=[[0,0.5],[1,0.5]];portConstraint=eastwest;top=0;left=0;right=0;bottom=0;" parent="Vk-TrDPL9tyzzPuqs7Jr-192" vertex="1">
          <mxGeometry y="60" width="250" height="30" as="geometry" />
        </mxCell>
        <mxCell id="Vk-TrDPL9tyzzPuqs7Jr-197" value="" style="shape=partialRectangle;overflow=hidden;connectable=0;fillColor=none;top=0;left=0;bottom=0;right=0;" parent="Vk-TrDPL9tyzzPuqs7Jr-196" vertex="1">
          <mxGeometry width="30" height="30" as="geometry">
            <mxRectangle width="30" height="30" as="alternateBounds" />
          </mxGeometry>
        </mxCell>
        <mxCell id="Vk-TrDPL9tyzzPuqs7Jr-198" value="nome text" style="shape=partialRectangle;overflow=hidden;connectable=0;fillColor=none;top=0;left=0;bottom=0;right=0;align=left;spacingLeft=6;" parent="Vk-TrDPL9tyzzPuqs7Jr-196" vertex="1">
          <mxGeometry x="30" width="220" height="30" as="geometry">
            <mxRectangle width="220" height="30" as="alternateBounds" />
          </mxGeometry>
        </mxCell>
        <mxCell id="Vk-TrDPL9tyzzPuqs7Jr-199" value="" style="shape=partialRectangle;overflow=hidden;connectable=0;fillColor=none;top=0;left=0;bottom=0;right=0;" parent="1" vertex="1">
          <mxGeometry x="370" y="1660" width="30" height="30" as="geometry">
            <mxRectangle width="30" height="30" as="alternateBounds" />
          </mxGeometry>
        </mxCell>
        <mxCell id="Vk-TrDPL9tyzzPuqs7Jr-200" value="cognomeÂ  Text" style="shape=partialRectangle;overflow=hidden;connectable=0;fillColor=none;top=0;left=0;bottom=0;right=0;align=left;spacingLeft=6;" parent="1" vertex="1">
          <mxGeometry x="400" y="1660" width="220" height="30" as="geometry">
            <mxRectangle width="220" height="30" as="alternateBounds" />
          </mxGeometry>
        </mxCell>
        <mxCell id="Vk-TrDPL9tyzzPuqs7Jr-201" value="indirizzo Text" style="shape=partialRectangle;overflow=hidden;connectable=0;fillColor=none;top=0;left=0;bottom=0;right=0;align=left;spacingLeft=6;" parent="1" vertex="1">
          <mxGeometry x="400" y="1690" width="220" height="30" as="geometry">
            <mxRectangle width="220" height="30" as="alternateBounds" />
          </mxGeometry>
        </mxCell>
        <mxCell id="Vk-TrDPL9tyzzPuqs7Jr-202" value="password TextÂ " style="shape=partialRectangle;overflow=hidden;connectable=0;fillColor=none;top=0;left=0;bottom=0;right=0;align=left;spacingLeft=6;" parent="1" vertex="1">
          <mxGeometry x="400" y="1720" width="220" height="30" as="geometry">
            <mxRectangle width="220" height="30" as="alternateBounds" />
          </mxGeometry>
        </mxCell>
        <mxCell id="Vk-TrDPL9tyzzPuqs7Jr-203" value="datanascita Date" style="shape=partialRectangle;overflow=hidden;connectable=0;fillColor=none;top=0;left=0;bottom=0;right=0;align=left;spacingLeft=6;" parent="1" vertex="1">
          <mxGeometry x="400" y="1750" width="220" height="30" as="geometry">
            <mxRectangle width="220" height="30" as="alternateBounds" />
          </mxGeometry>
        </mxCell>
        <mxCell id="Vk-TrDPL9tyzzPuqs7Jr-204" value="" style="endArrow=none;html=1;rounded=0;exitX=0.5;exitY=0;exitDx=0;exitDy=0;entryX=0.5;entryY=1;entryDx=0;entryDy=0;" parent="1" source="Vk-TrDPL9tyzzPuqs7Jr-184" target="Vk-TrDPL9tyzzPuqs7Jr-192" edge="1">
          <mxGeometry relative="1" as="geometry">
            <mxPoint x="500" y="2080" as="sourcePoint" />
            <mxPoint x="500" y="2010" as="targetPoint" />
          </mxGeometry>
        </mxCell>
        <mxCell id="Vk-TrDPL9tyzzPuqs7Jr-205" value="N" style="resizable=0;html=1;whiteSpace=wrap;align=left;verticalAlign=bottom;" parent="Vk-TrDPL9tyzzPuqs7Jr-204" connectable="0" vertex="1">
          <mxGeometry x="-1" relative="1" as="geometry" />
        </mxCell>
        <mxCell id="Vk-TrDPL9tyzzPuqs7Jr-206" value="N" style="resizable=0;html=1;whiteSpace=wrap;align=right;verticalAlign=bottom;" parent="Vk-TrDPL9tyzzPuqs7Jr-204" connectable="0" vertex="1">
          <mxGeometry x="1" relative="1" as="geometry">
            <mxPoint x="15" y="30" as="offset" />
          </mxGeometry>
        </mxCell>
        <mxCell id="Vk-TrDPL9tyzzPuqs7Jr-207" value="" style="line;strokeWidth=2;html=1;" parent="1" vertex="1">
          <mxGeometry x="278.75" y="339.9999999999999" width="40" height="10" as="geometry" />
        </mxCell>
        <mxCell id="Vk-TrDPL9tyzzPuqs7Jr-208" value="" style="ellipse;whiteSpace=wrap;html=1;aspect=fixed;fillColor=#000000;" parent="1" vertex="1">
          <mxGeometry x="268.75" y="339.9999999999999" width="10" height="10" as="geometry" />
        </mxCell>
        <mxCell id="Vk-TrDPL9tyzzPuqs7Jr-209" value="" style="line;strokeWidth=2;html=1;" parent="1" vertex="1">
          <mxGeometry x="278.75" y="399.9999999999999" width="40" height="10" as="geometry" />
        </mxCell>
        <mxCell id="Vk-TrDPL9tyzzPuqs7Jr-210" value="" style="ellipse;whiteSpace=wrap;html=1;aspect=fixed;fillColor=#000000;" parent="1" vertex="1">
          <mxGeometry x="268.75" y="399.9999999999999" width="10" height="10" as="geometry" />
        </mxCell>
        <mxCell id="Vk-TrDPL9tyzzPuqs7Jr-211" value="" style="rounded=0;whiteSpace=wrap;html=1;dashed=1;" parent="1" vertex="1">
          <mxGeometry x="168.75" y="327.5" width="80" height="35" as="geometry" />
        </mxCell>
        <mxCell id="Vk-TrDPL9tyzzPuqs7Jr-212" value="" style="shape=table;startSize=0;container=1;collapsible=1;childLayout=tableLayout;fixedRows=1;rowLines=0;fontStyle=0;align=center;resizeLast=1;strokeColor=none;fillColor=none;collapsible=0;" parent="1" vertex="1">
          <mxGeometry x="168.75" y="330" width="180" height="30" as="geometry" />
        </mxCell>
        <mxCell id="Vk-TrDPL9tyzzPuqs7Jr-213" value="" style="shape=tableRow;horizontal=0;startSize=0;swimlaneHead=0;swimlaneBody=0;fillColor=none;collapsible=0;dropTarget=0;points=[[0,0.5],[1,0.5]];portConstraint=eastwest;top=0;left=0;right=0;bottom=0;" parent="Vk-TrDPL9tyzzPuqs7Jr-212" vertex="1">
          <mxGeometry width="180" height="30" as="geometry" />
        </mxCell>
        <mxCell id="Vk-TrDPL9tyzzPuqs7Jr-214" value="FK" style="shape=partialRectangle;connectable=0;fillColor=none;top=0;left=0;bottom=0;right=0;fontStyle=0;overflow=hidden;whiteSpace=wrap;html=1;" parent="Vk-TrDPL9tyzzPuqs7Jr-213" vertex="1">
          <mxGeometry width="30" height="30" as="geometry">
            <mxRectangle width="30" height="30" as="alternateBounds" />
          </mxGeometry>
        </mxCell>
        <mxCell id="Vk-TrDPL9tyzzPuqs7Jr-215" value="usr" style="shape=partialRectangle;connectable=0;fillColor=none;top=0;left=0;bottom=0;right=0;align=left;spacingLeft=6;fontStyle=0;overflow=hidden;whiteSpace=wrap;html=1;" parent="Vk-TrDPL9tyzzPuqs7Jr-213" vertex="1">
          <mxGeometry x="30" width="150" height="30" as="geometry">
            <mxRectangle width="150" height="30" as="alternateBounds" />
          </mxGeometry>
        </mxCell>
        <mxCell id="Vk-TrDPL9tyzzPuqs7Jr-216" value="" style="rounded=0;whiteSpace=wrap;html=1;dashed=1;" parent="1" vertex="1">
          <mxGeometry x="168.75" y="390" width="80" height="35" as="geometry" />
        </mxCell>
        <mxCell id="Vk-TrDPL9tyzzPuqs7Jr-217" value="" style="shape=table;startSize=0;container=1;collapsible=1;childLayout=tableLayout;fixedRows=1;rowLines=0;fontStyle=0;align=center;resizeLast=1;strokeColor=none;fillColor=none;collapsible=0;" parent="1" vertex="1">
          <mxGeometry x="168.75" y="392.5" width="180" height="30" as="geometry" />
        </mxCell>
        <mxCell id="Vk-TrDPL9tyzzPuqs7Jr-218" value="" style="shape=tableRow;horizontal=0;startSize=0;swimlaneHead=0;swimlaneBody=0;fillColor=none;collapsible=0;dropTarget=0;points=[[0,0.5],[1,0.5]];portConstraint=eastwest;top=0;left=0;right=0;bottom=0;" parent="Vk-TrDPL9tyzzPuqs7Jr-217" vertex="1">
          <mxGeometry width="180" height="30" as="geometry" />
        </mxCell>
        <mxCell id="Vk-TrDPL9tyzzPuqs7Jr-219" value="FK" style="shape=partialRectangle;connectable=0;fillColor=none;top=0;left=0;bottom=0;right=0;fontStyle=0;overflow=hidden;whiteSpace=wrap;html=1;" parent="Vk-TrDPL9tyzzPuqs7Jr-218" vertex="1">
          <mxGeometry width="30" height="30" as="geometry">
            <mxRectangle width="30" height="30" as="alternateBounds" />
          </mxGeometry>
        </mxCell>
        <mxCell id="Vk-TrDPL9tyzzPuqs7Jr-220" value="idprod" style="shape=partialRectangle;connectable=0;fillColor=none;top=0;left=0;bottom=0;right=0;align=left;spacingLeft=6;fontStyle=0;overflow=hidden;whiteSpace=wrap;html=1;" parent="Vk-TrDPL9tyzzPuqs7Jr-218" vertex="1">
          <mxGeometry x="30" width="150" height="30" as="geometry">
            <mxRectangle width="150" height="30" as="alternateBounds" />
          </mxGeometry>
        </mxCell>
        <mxCell id="Vk-TrDPL9tyzzPuqs7Jr-222" value="0" style="text;html=1;align=center;verticalAlign=middle;resizable=0;points=[];autosize=1;strokeColor=none;fillColor=none;" parent="1" vertex="1">
          <mxGeometry x="365" y="248" width="30" height="30" as="geometry" />
        </mxCell>
        <mxCell id="KU2yGJf80zvxerpezzNI-1" value="" style="line;strokeWidth=2;html=1;" vertex="1" parent="1">
          <mxGeometry x="414" y="399.9999999999999" width="40" height="10" as="geometry" />
        </mxCell>
        <mxCell id="KU2yGJf80zvxerpezzNI-2" value="" style="ellipse;whiteSpace=wrap;html=1;aspect=fixed;" vertex="1" parent="1">
          <mxGeometry x="454" y="399.9999999999999" width="10" height="10" as="geometry" />
        </mxCell>
        <mxCell id="KU2yGJf80zvxerpezzNI-3" value="" style="rounded=0;whiteSpace=wrap;html=1;dashed=1;" vertex="1" parent="1">
          <mxGeometry x="464" y="387.5" width="126" height="35" as="geometry" />
        </mxCell>
        <mxCell id="KU2yGJf80zvxerpezzNI-4" value="prezzo Decimal (10,2)" style="text;html=1;strokeColor=none;fillColor=none;align=center;verticalAlign=middle;whiteSpace=wrap;rounded=0;" vertex="1" parent="1">
          <mxGeometry x="464" y="390" width="126" height="30" as="geometry" />
        </mxCell>
      </root>
    </mxGraphModel>
  </diagram>
</mxfile>
